<svg width="64" height="64" viewBox="0 0 64 64" fill="none" xmlns="http://www.w3.org/2000/svg">
<g clip-path="url(#clip0_21_720)">
<path d="M44 16C46.4487 15.9997 48.7996 16.9617 50.5455 18.6788C52.2915 20.3958 53.2927 22.7302 53.3333 25.1787C53.5733 27.4853 53.5386 30.888 51.9786 34.816C50.384 38.832 47.2746 43.2107 41.6 47.4667C41.3198 47.6768 41.001 47.8297 40.6618 47.9166C40.3225 48.0035 39.9695 48.0227 39.6228 47.9732C38.9227 47.8732 38.291 47.4991 37.8666 46.9333C37.4423 46.3675 37.2601 45.6563 37.3601 44.9562C37.4601 44.2561 37.8342 43.6243 38.4 43.2C42.5706 40.072 44.9599 37.032 46.3279 34.3733C45.0454 34.7027 43.7074 34.7554 42.4029 34.5279C41.0984 34.3004 39.8573 33.7979 38.7619 33.0538C37.6666 32.3098 36.7421 31.3411 36.0499 30.2123C35.3577 29.0834 34.9136 27.8202 34.7471 26.5065C34.5807 25.1929 34.6957 23.8588 35.0845 22.593C35.4732 21.3272 36.1269 20.1586 37.0021 19.1648C37.8773 18.1711 38.9539 17.3749 40.1604 16.8293C41.3669 16.2836 42.6758 16.0009 44 16ZM20 16C22.4487 15.9997 24.7996 16.9617 26.5455 18.6788C28.2915 20.3958 29.2927 22.7302 29.3333 25.1787C29.5733 27.4853 29.5386 30.888 27.9786 34.816C26.3866 38.832 23.2746 43.2107 17.6 47.4667C17.3198 47.6768 17.001 47.8297 16.6618 47.9166C16.3225 48.0035 15.9695 48.0227 15.6228 47.9732C14.9227 47.8732 14.291 47.4991 13.8666 46.9333C13.4423 46.3675 13.2601 45.6563 13.3601 44.9562C13.4601 44.2561 13.8342 43.6243 14.4 43.2C18.5706 40.072 20.96 37.032 22.328 34.3733C21.0454 34.7027 19.7074 34.7554 18.4029 34.5279C17.0984 34.3004 15.8573 33.7979 14.7619 33.0538C13.6666 32.3098 12.7421 31.3411 12.0499 30.2123C11.3577 29.0834 10.9136 27.8202 10.7471 26.5065C10.5807 25.1929 10.6957 23.8588 11.0845 22.593C11.4732 21.3272 12.1269 20.1586 13.0021 19.1648C13.8773 18.1711 14.9539 17.3749 16.1604 16.8293C17.3669 16.2836 18.6758 16.0009 20 16Z" fill="#464545"/>
</g>
<defs>
<clipPath id="clip0_21_720">
<rect width="64" height="64" fill="white"/>
</clipPath>
</defs>
</svg>
