<svg width="64" height="64" viewBox="0 0 64 64" fill="none" xmlns="http://www.w3.org/2000/svg">
<g clip-path="url(#clip0_21_716)">
<path d="M22.3999 16.5333C22.68 16.3232 22.9988 16.1703 23.3381 16.0834C23.6773 15.9965 24.0303 15.9773 24.377 16.0268C24.7237 16.0763 25.0572 16.1936 25.3585 16.3721C25.6599 16.5505 25.9231 16.7865 26.1332 17.0667C26.3433 17.3468 26.4962 17.6656 26.5831 18.0049C26.67 18.3441 26.6893 18.6971 26.6397 19.0438C26.5902 19.3905 26.4729 19.724 26.2945 20.0253C26.1161 20.3266 25.88 20.5899 25.5999 20.8C21.4292 23.928 19.0399 26.9707 17.6719 29.6267C19.5502 29.1432 21.5325 29.2568 23.3432 29.9519C25.154 30.6469 26.7032 31.8888 27.7756 33.505C28.8479 35.1211 29.3902 37.0312 29.3269 38.9697C29.2637 40.9082 28.5981 42.7789 27.4227 44.3217C26.2472 45.8645 24.6203 47.0027 22.7681 47.5783C20.9159 48.1538 18.9305 48.138 17.0876 47.5331C15.2448 46.9282 13.6363 45.7642 12.4855 44.2029C11.3347 42.6416 10.699 40.7606 10.6665 38.8213C10.3248 35.5465 10.7899 32.2378 12.0212 29.184C13.6132 25.168 16.7252 20.7893 22.3999 16.5333ZM46.3999 16.5333C46.68 16.3232 46.9988 16.1703 47.3381 16.0834C47.6773 15.9965 48.0303 15.9773 48.377 16.0268C48.7237 16.0763 49.0572 16.1936 49.3585 16.3721C49.6599 16.5505 49.9231 16.7865 50.1332 17.0667C50.3433 17.3468 50.4962 17.6656 50.5831 18.0049C50.67 18.3441 50.6893 18.6971 50.6397 19.0438C50.5902 19.3905 50.4729 19.724 50.2945 20.0253C50.1161 20.3266 49.88 20.5899 49.5999 20.8C45.4292 23.928 43.0399 26.9707 41.6719 29.6267C43.5502 29.1432 45.5325 29.2568 47.3432 29.9519C49.154 30.6469 50.7032 31.8888 51.7756 33.505C52.8479 35.1211 53.3902 37.0312 53.3269 38.9697C53.2637 40.9082 52.5981 42.7789 51.4227 44.3217C50.2472 45.8645 48.6203 47.0027 46.7681 47.5783C44.9159 48.1538 42.9305 48.138 41.0876 47.5331C39.2448 46.9282 37.6363 45.7642 36.4855 44.2029C35.3347 42.6416 34.699 40.7606 34.6665 38.8213C34.3248 35.5465 34.7899 32.2378 36.0212 29.184C37.6159 25.168 40.7252 20.7893 46.3999 16.5333Z" fill="#464545"/>
</g>
<defs>
<clipPath id="clip0_21_716">
<rect width="64" height="64" fill="white"/>
</clipPath>
</defs>
</svg>
